<svg width="32" height="33" viewBox="0 0 32 33" fill="none" xmlns="http://www.w3.org/2000/svg">
<g id="623c9a18994efe262cd60313_Highlight_03.svg" clip-path="url(#clip0_2537_5929)">
<path id="Vector" fill-rule="evenodd" clip-rule="evenodd" d="M16.5958 29.4193C12.5504 28.4471 8.65473 28.5107 4.55146 28.3942C3.75011 28.3716 3.08388 28.9866 3.05975 29.7675C3.03562 30.5487 3.66802 31.2006 4.46937 31.2238C8.36024 31.3342 12.0628 31.245 15.9055 32.1677C16.6826 32.3546 17.4695 31.8899 17.6577 31.1314C17.8509 30.3732 17.373 29.6057 16.5958 29.4193Z" fill="white"/>
<path id="Vector_2" fill-rule="evenodd" clip-rule="evenodd" d="M24.4361 21.1586C18.2667 14.5627 10.3305 8.34777 2.31703 4.00387C1.61707 3.62506 0.733613 3.8718 0.347422 4.5549C-0.0387697 5.23799 0.212277 6.10034 0.912247 6.47916C8.66021 10.6796 16.3358 16.6902 22.2976 23.0684C22.8383 23.6448 23.7555 23.6848 24.3445 23.158C24.9334 22.6311 24.9768 21.7352 24.4361 21.1586Z" fill="white"/>
<path id="Vector_3" fill-rule="evenodd" clip-rule="evenodd" d="M31.1773 19.4878C32.196 13.4551 30.4581 7.23693 28.001 1.75139C27.6775 1.03574 26.8231 0.709278 26.0941 1.02205C25.3603 1.33529 25.0273 2.17077 25.3459 2.88643C27.5857 7.8823 29.2464 13.5325 28.3195 19.0269C28.1893 19.7979 28.7251 20.5267 29.512 20.6536C30.2988 20.781 31.047 20.2582 31.1773 19.4878Z" fill="white"/>
</g>
<defs>
<clipPath id="clip0_2537_5929">
<rect width="31.3056" height="32.6667" fill="white" transform="translate(0.166748 0.222656)"/>
</clipPath>
</defs>
</svg>
