<svg width="58" height="66" viewBox="0 0 58 66" fill="none" xmlns="http://www.w3.org/2000/svg">
<path d="M36.5142 0C38.7538 0.0311247 40.8906 0.456045 42.886 1.47098C44.6452 2.37157 46.0796 3.63076 47.0587 5.3663C47.695 6.51202 48.1124 7.76621 48.2895 9.06473C48.6535 11.5574 48.2854 13.9689 47.4633 16.3269C46.9802 17.71 46.3117 19.007 45.5877 20.2811C44.1127 22.8746 42.2175 25.1224 40.013 27.115C37.1848 29.674 34.0834 31.9138 30.7649 33.794C29.4793 34.52 28.1464 35.1296 26.7126 35.5025C25.8343 35.7397 24.9274 35.8544 24.0176 35.8435C22.82 35.8191 21.8829 35.2738 21.1541 34.3549C20.4812 33.5302 20.1345 32.4872 20.1798 31.4238C20.1877 31.1279 20.2304 30.8341 20.307 30.5482C20.7407 29.0075 21.3301 27.5318 22.211 26.186C22.8843 25.1582 23.6868 24.2455 24.7362 23.5925C25.9034 22.8658 27.172 22.5553 28.5442 22.855C28.9732 22.9556 29.377 23.1433 29.7304 23.4065C30.6337 24.052 30.5863 25.0649 30.1526 25.7117C29.781 26.2738 29.3656 26.8057 28.9103 27.3025C28.1389 28.1333 27.3195 28.9189 26.5198 29.7227C25.812 30.4339 25.1469 31.1802 24.6076 32.0307C24.3282 32.4719 24.0704 32.9218 23.9933 33.4516C23.8958 34.1161 24.2409 34.5687 24.9114 34.631C25.2584 34.6593 25.6076 34.6242 25.9419 34.5274C26.9724 34.2426 27.9292 33.7832 28.869 33.2879C30.3183 32.5213 31.656 31.5841 32.9599 30.5956C34.5405 29.3973 36.0771 28.1476 37.4933 26.7578C39.1063 25.1765 40.5442 23.4579 41.6443 21.4747C42.4482 20.0267 43.0402 18.4975 43.3034 16.8574C43.5362 15.4128 43.4063 14.0054 42.7371 12.6793C42.4148 12.0238 41.9108 11.4748 41.2851 11.098C40.9961 10.9241 40.6775 10.8052 40.3452 10.7475C39.1361 10.533 37.9662 10.7089 36.8166 11.0926C35.6183 11.4931 34.5066 12.0777 33.4261 12.7165C31.0809 14.1076 28.733 15.4981 26.4981 17.0645C25.3776 17.8493 24.2917 18.6843 23.1935 19.5003C22.2016 20.2378 21.2164 20.9841 20.1324 21.587C19.2528 22.0879 18.3007 22.4492 17.3102 22.6581C16.0829 22.9071 14.9515 22.6757 13.9122 22.0085C12.8337 21.3164 12.0786 20.3664 11.747 19.1092C11.5359 18.3155 11.6192 17.5286 11.8012 16.7451C12.0671 15.5948 12.5719 14.5528 13.2011 13.565C14.7573 11.1251 16.7141 9.05526 18.9896 7.28589C22.3619 4.66397 26.0725 2.64492 30.0863 1.18409C32.147 0.430314 34.3202 0.0299866 36.5142 0Z" fill="#E20010"/>
<path d="M8.7699 55.7837C8.7584 55.0178 8.67111 54.329 8.2286 53.7315C8.01311 53.4428 7.71478 53.2267 7.37335 53.1118C6.49374 52.7964 5.59789 52.8337 4.72436 53.1036C4.02406 53.3202 3.34879 53.6152 2.66337 53.8784C2.52804 53.9284 2.4049 53.9927 2.24115 54.0658C1.9184 53.2653 1.60107 52.4886 1.26884 51.6766C1.74992 51.4486 2.20326 51.2159 2.67081 51.0162C3.748 50.5555 4.8651 50.2395 6.03972 50.1684C7.21434 50.0974 8.3734 50.1596 9.44246 50.7294C10.6516 51.3694 11.5244 52.2937 11.8898 53.6388C11.9425 53.8149 11.9741 53.9966 11.9839 54.1801C12.0305 55.9265 12.0935 57.6729 12.1009 59.4192C12.1057 60.6128 12.0272 61.807 11.992 63.0013C11.9857 63.165 11.9175 63.3203 11.8012 63.4357C10.9655 64.3559 9.94316 64.9919 8.78478 65.4189C7.54263 65.8721 6.21981 66.0622 4.90029 65.9771C3.68236 65.9094 2.63089 65.4107 1.7418 64.5832C0.852721 63.7557 0.23158 62.7564 0.0583647 61.5317C-0.178454 59.8543 0.305333 58.3989 1.51108 57.2013C2.28649 56.4313 3.24188 56.0334 4.31839 55.8927C5.50925 55.7377 6.70417 55.779 7.89908 55.7824L8.7699 55.7837ZM8.6136 58.5105C8.54341 58.4967 8.47247 58.487 8.40114 58.4814C7.99516 58.4733 7.58445 58.4591 7.17645 58.4652C6.68725 58.4726 6.19602 58.4747 5.70953 58.5207C5.2068 58.5687 4.71895 58.7156 4.32921 59.0512C3.68236 59.6087 3.4902 60.3367 3.64785 61.1575C3.84408 62.1724 4.41109 62.8815 5.42196 63.1833C5.94319 63.3392 6.4951 63.3625 7.02759 63.251C7.52254 63.1604 7.9842 62.9389 8.3646 62.6095C8.429 62.5596 8.48195 62.4964 8.51988 62.4243C8.55781 62.3522 8.57985 62.2727 8.5845 62.1914C8.60007 61.8348 8.64608 61.4789 8.64878 61.1223C8.6542 60.3056 8.64202 59.4889 8.63525 58.6723C8.63119 58.618 8.62397 58.564 8.6136 58.5105Z" fill="#E20010"/>
<path d="M49.4668 58.4427C46.5641 58.4427 43.7155 58.3804 40.827 58.4562C40.8419 58.6592 40.8507 58.8514 40.869 59.0388C40.9434 59.8054 41.1085 60.5504 41.4326 61.2534C41.6846 61.8268 42.0758 62.3282 42.5707 62.7122C43.3556 63.3083 44.2514 63.4057 45.1913 63.2846C45.968 63.1845 46.6913 62.9003 47.4126 62.6141C47.7435 62.4835 48.0716 62.3434 48.4275 62.1979C48.7659 62.9057 49.0974 63.6013 49.4425 64.3171C49.3789 64.3631 49.3193 64.4146 49.253 64.4525C47.8457 65.2874 46.3341 65.8253 44.7014 65.9674C43.2128 66.0967 41.7919 65.8524 40.5063 65.0289C39.6308 64.468 39.0177 63.6757 38.5049 62.7893C37.8732 61.6865 37.4907 60.4588 37.3844 59.1924C37.1697 56.8833 37.66 54.7334 38.8553 52.7428C39.689 51.3591 40.9333 50.6074 42.4908 50.3482C43.9226 50.0965 45.3973 50.3419 46.6704 51.0438C47.3835 51.4302 47.8802 52.0384 48.2895 52.7205C48.8308 53.6197 49.1157 54.611 49.2524 55.6381C49.3633 56.4663 49.3985 57.3046 49.4648 58.1416C49.4729 58.2275 49.4668 58.3168 49.4668 58.4427ZM45.9484 55.814C45.7799 55.042 45.6649 54.253 45.1595 53.5987C44.906 53.2735 44.5499 53.0437 44.1493 52.9465C43.0836 52.6643 42.0125 53.1555 41.5544 54.1644C41.3907 54.5237 41.2946 54.9141 41.1755 55.2923C41.122 55.4635 41.0875 55.6415 41.0449 55.814C41.3311 55.8898 45.6554 55.8932 45.9498 55.816L45.9484 55.814Z" fill="#E20010"/>
<path d="M30.4246 46.6499L33.8882 46.114V50.3679C34.6569 50.414 35.389 50.3639 36.1251 50.4431V53.0636C35.3809 53.0758 34.6521 53.0535 33.8923 53.0995V53.4676C33.886 55.99 33.8806 58.5127 33.876 61.0356C33.876 61.4328 33.9078 61.8306 33.9437 62.2265C34.0005 62.8354 34.3382 63.2218 34.9282 63.37C35.2536 63.4525 35.5879 63.4992 35.9181 63.5621L36.2496 63.6298V65.8538C36.2124 65.8723 36.1728 65.8855 36.1319 65.8931C35.1488 65.9371 34.1697 65.9114 33.219 65.6224C32.2907 65.3423 31.5167 64.8348 30.9916 63.9985C30.6932 63.5249 30.5416 62.9924 30.476 62.4423C30.4363 62.0978 30.4169 61.7512 30.4178 61.4044C30.4178 56.6139 30.4205 51.8238 30.4259 47.0342L30.4246 46.6499Z" fill="#E20010"/>
<path d="M51.3708 46.6526L54.7201 46.072V46.5342C54.7201 50.8848 54.7219 55.2355 54.7255 59.5862C54.7255 60.3826 54.7323 61.179 54.7384 61.9761C54.7438 62.7623 55.0307 63.1629 55.7817 63.397C56.037 63.4675 56.2961 63.5231 56.5578 63.5634C56.7175 63.5932 56.8792 63.6074 57.0734 63.6311V65.9032C57.0554 65.9181 57.034 65.9286 57.0112 65.9336C56.0598 65.9722 55.1126 65.9566 54.1876 65.686C53.6272 65.5247 53.1053 65.2512 52.6537 64.8822C51.8127 64.194 51.4703 63.2718 51.3823 62.2318C51.3566 61.9274 51.36 61.6195 51.3607 61.3137C51.3607 56.5543 51.3641 51.7954 51.3708 47.0369V46.6526Z" fill="#E20010"/>
<path d="M23.6908 65.7023H20.3077C20.3037 65.5609 20.2969 65.4316 20.2962 65.3037C20.2926 63.2712 20.2897 61.2386 20.2874 59.206C20.2834 57.5821 20.2732 55.9582 20.2739 54.3343C20.275 54.0399 20.2976 53.7459 20.3416 53.4547C20.3916 53.1225 20.5655 52.8457 20.8071 52.6123C22.136 51.3186 23.7281 50.5432 25.5434 50.2089C26.6811 50.0003 27.8472 49.9987 28.9854 50.2042C29.0456 50.215 29.1059 50.2286 29.1647 50.2434C29.1938 50.2509 29.2216 50.2651 29.2777 50.2867C28.8934 51.2638 28.4252 52.1975 27.984 53.1205C27.4569 53.1205 26.9576 53.1049 26.4596 53.1238C25.5996 53.1524 24.7554 53.3627 23.9825 53.7409C23.7632 53.8485 23.6814 53.9825 23.6821 54.2348C23.6915 57.9337 23.6938 61.6326 23.6888 65.3315L23.6908 65.7023Z" fill="#E20010"/>
<path d="M17.8123 50.5112C17.8481 55.5805 17.8089 60.62 17.8414 65.6906H14.5306C14.5225 65.5681 14.5063 65.4403 14.5063 65.3124C14.5063 62.1255 14.5063 58.9381 14.5063 55.7503C14.5063 54.2895 14.5185 52.8287 14.5246 51.3678C14.5246 51.2569 14.5246 51.1459 14.5246 51.0065L17.8123 50.5112Z" fill="#E20010"/>
<path d="M16.0193 49.0193C14.4028 49.0153 13.3906 47.4063 14.0611 45.8872C14.4732 44.9555 15.1809 44.6017 16.202 44.6077C17.5701 44.6192 18.5844 45.9799 18.2582 47.3095C17.9977 48.3718 17.1452 49.022 16.0193 49.0193Z" fill="#E20010"/>
</svg>
