<svg width="80" height="80" viewBox="0 0 80 80" fill="none" xmlns="http://www.w3.org/2000/svg">
<path d="M39.9442 74.387C58.8797 74.387 74.23 59.0367 74.23 40.1012C74.23 21.1657 58.8797 5.81543 39.9442 5.81543C21.0087 5.81543 5.65845 21.1657 5.65845 40.1012C5.65845 59.0367 21.0087 74.387 39.9442 74.387Z" fill="#50B651"/>
<path opacity="0.663" fill-rule="evenodd" clip-rule="evenodd" d="M74.125 40.0048C74.125 58.9999 58.7267 74.3981 39.7359 74.3981C20.7452 74.3981 5.34265 58.9999 5.34265 40.0048C5.34265 31.6021 5.57817 30.3529 8.88566 25.5691C8.88566 25.5691 8.71499 30.9724 12.677 34.1877C15.1405 36.1853 17.7116 34.7432 22.4177 32.5758C27.5086 30.2291 31.6473 28.7153 34.8763 29.1147C39.7402 29.7171 54.7323 38.7206 62.5564 36.9277C68.807 35.4984 68.1474 20.7615 68.1474 20.7615C74.974 27.4277 74.125 31.9332 74.125 40.0048Z" fill="url(#paint0_linear_6005_1250)"/>
<path opacity="0.586" fill-rule="evenodd" clip-rule="evenodd" d="M54.4943 65.2674C66.9329 53.5671 69.0005 40.1631 60.6971 25.0552C60.7392 25.086 61.2529 23.3133 62.2382 19.7373C66.6573 25.0888 69.0071 31.6941 69.2875 39.5532C69.2852 49.7328 64.3542 58.3042 54.4943 65.2674Z" fill="url(#paint1_linear_6005_1250)"/>
<path opacity="0.744" fill-rule="evenodd" clip-rule="evenodd" d="M48.5944 19.8083C42.5904 16.4854 35.7023 9.80135 36.6179 8.39762C37.5336 6.9939 49.4178 7.23539 55.4227 10.5582C61.4275 13.8811 66.5381 23.8488 65.6233 25.2525C64.7086 26.6562 54.5984 23.1311 48.5944 19.8083Z" fill="url(#paint2_radial_6005_1250)"/>
<path fill-rule="evenodd" clip-rule="evenodd" d="M53.8243 48.5448C48.8435 48.5448 44.8055 44.3917 44.8055 39.2692C44.8055 34.1467 48.8435 29.9944 53.8243 29.9944C58.8052 29.9944 62.844 34.1467 62.844 39.2692C62.844 44.3917 58.8061 48.5448 53.8243 48.5448ZM53.8883 45.6026C56.997 45.6026 59.5203 42.767 59.5203 39.2692C59.5203 35.7714 56.997 32.9384 53.8883 32.9384C50.7797 32.9384 48.2564 35.774 48.2564 39.2709C48.2564 42.7678 50.7797 45.6026 53.8883 45.6026Z" fill="white"/>
<path fill-rule="evenodd" clip-rule="evenodd" d="M35.2159 22.5261H41.7149V48.4416H38.1471V25.3686H35.2159V22.5261Z" fill="white"/>
<path fill-rule="evenodd" clip-rule="evenodd" d="M30.3724 30.258H33.7456V51.9C33.7456 53.8721 31.6712 55.926 29.6496 56.8101C28.6939 57.2276 26.9304 57.4757 24.359 57.5542V55.4012C26.8741 55.1208 28.5716 54.5613 29.4517 53.7228C29.9595 53.0171 30.2769 52.1924 30.3733 51.3283V44.9702C29.4716 46.8833 28.3361 48.1517 26.9668 48.7752C25.5434 49.5432 22.6464 49.4169 21.4637 48.7752C20.281 48.1335 18.5462 46.4439 17.7509 43.9274C17.5307 43.2328 16.9829 41.3427 17.04 39.3399C17.0912 37.4328 17.7227 35.4146 18.2475 34.5852C19.1486 33.1687 20.5694 31.3946 22.7215 30.6531C23.7728 30.2907 25.7212 30.1604 28.5668 30.2623V32.4033C26.4522 32.2605 25.133 32.3319 24.609 32.6174C23.8231 33.0441 22.0491 33.5706 21.4637 37.437C20.8783 41.3034 21.4808 44.4676 23.3367 45.4583C23.9725 45.7996 25.0971 46.2032 26.1365 45.8474C28.1333 45.1647 30.0123 42.7302 30.1557 41.0807C30.3002 39.4071 30.3724 35.7995 30.3724 30.258Z" fill="white"/>
<path fill-rule="evenodd" clip-rule="evenodd" d="M73.0472 46.8885C69.8617 62.227 56.27 73.752 39.9877 73.752C21.3399 73.752 6.22241 58.6345 6.22241 39.9868C6.22241 28.402 12.0566 18.18 20.9465 12.1001C13.7231 18.0904 9.12372 27.14 9.12372 37.2596C9.12372 55.31 23.7565 69.9419 41.8061 69.9419C56.5055 69.9419 68.9367 60.2388 73.0472 46.8885Z" fill="url(#paint3_radial_6005_1250)"/>
<path fill-rule="evenodd" clip-rule="evenodd" d="M39.9877 0C17.9036 0 0 17.9028 0 39.9868C0 62.0709 17.9036 79.9745 39.9877 79.9745C62.0718 79.9745 79.9754 62.0709 79.9754 39.9868C79.9754 17.9028 62.0718 0 39.9877 0ZM39.9877 73.7529C21.34 73.7529 6.22245 58.6354 6.22245 39.9877C6.22245 28.4029 12.0566 18.181 20.9466 12.101C26.5532 8.2611 33.1922 6.21115 39.9877 6.2216C58.6354 6.2216 73.7529 21.3383 73.7529 39.9868C73.7542 42.3055 73.5177 44.6181 73.0472 46.8885C69.8618 62.2271 56.27 73.7521 39.9877 73.7521V73.7529Z" fill="white"/>
<defs>
<linearGradient id="paint0_linear_6005_1250" x1="38.4073" y1="25.4582" x2="42.8156" y2="65.2684" gradientUnits="userSpaceOnUse">
<stop stop-color="#123214"/>
<stop offset="0.46" stop-color="#3E7C37"/>
<stop offset="0.91" stop-color="#5FBB46"/>
</linearGradient>
<linearGradient id="paint1_linear_6005_1250" x1="63.8744" y1="22.8701" x2="63.8744" y2="55.0622" gradientUnits="userSpaceOnUse">
<stop stop-color="white" stop-opacity="0"/>
<stop offset="0.64" stop-color="white" stop-opacity="0.43"/>
<stop offset="1" stop-color="white" stop-opacity="0.42"/>
</linearGradient>
<radialGradient id="paint2_radial_6005_1250" cx="0" cy="0" r="1" gradientUnits="userSpaceOnUse" gradientTransform="translate(51.8514 17.0506) rotate(26.7606) scale(16.9422 7.05613)">
<stop offset="0.13" stop-color="white"/>
<stop offset="0.29" stop-color="white" stop-opacity="0.69"/>
<stop offset="0.45" stop-color="white" stop-opacity="0.4"/>
<stop offset="0.59" stop-color="white" stop-opacity="0.18"/>
<stop offset="0.69" stop-color="white" stop-opacity="0.05"/>
<stop offset="0.74" stop-color="white" stop-opacity="0"/>
</radialGradient>
<radialGradient id="paint3_radial_6005_1250" cx="0" cy="0" r="1" gradientUnits="userSpaceOnUse" gradientTransform="translate(45.7776 32.2072) rotate(39.84) scale(37.967 41.3841)">
<stop offset="0.86" stop-opacity="0"/>
<stop offset="0.98" stop-opacity="0.47"/>
<stop offset="1"/>
</radialGradient>
</defs>
</svg>
