<svg width="101" height="101" viewBox="0 0 101 101" fill="none" xmlns="http://www.w3.org/2000/svg">
<circle cx="50.5" cy="50.5" r="50.5" fill="#042E46"/>
<path d="M65.5826 57.159C64.5753 59.5411 62.9998 61.6402 60.9939 63.2728C58.988 64.9053 56.6127 66.0216 54.0756 66.5241C51.5386 67.0266 48.9171 66.8999 46.4403 66.1552C43.9636 65.4105 41.7069 64.0704 39.8677 62.2521C38.0285 60.4338 36.6627 58.1926 35.8898 55.7245C35.1168 53.2564 34.9602 50.6365 35.4337 48.0939C35.9072 45.5513 36.9963 43.1634 38.6058 41.1389C40.2154 39.1145 42.2963 37.5151 44.6668 36.4807" stroke="white" stroke-width="3.16667" stroke-linecap="round" stroke-linejoin="round"/>
<path d="M66.8333 51.0001C66.8333 48.9208 66.4238 46.8619 65.6281 44.9409C64.8324 43.0199 63.6661 41.2745 62.1959 39.8042C60.7256 38.334 58.9801 37.1677 57.0592 36.372C55.1382 35.5763 53.0793 35.1667 51 35.1667V51.0001H66.8333Z" stroke="white" stroke-width="3.16667" stroke-linecap="round" stroke-linejoin="round"/>
</svg>
