<svg width="380" height="146" viewBox="0 0 380 146" fill="none" xmlns="http://www.w3.org/2000/svg">
<rect width="306" height="146" rx="18" fill="white"/>
<path d="M38.282 119V92.4H41.398L58.954 114.25H57.358V92.4H61.158V119H58.042L40.448 97.15H42.044V119H38.282ZM34.14 109.386V107.258H65.3V109.386H34.14ZM34.14 104.142V102.014H65.3V104.142H34.14ZM72.7435 119V93.92L74.3775 95.706H66.7395V92.4H76.5055V119H72.7435ZM82.514 124.624L84.414 116.948L84.908 119.152C84.1733 119.152 83.5527 118.924 83.046 118.468C82.5647 118.012 82.324 117.391 82.324 116.606C82.324 115.846 82.5647 115.225 83.046 114.744C83.5527 114.263 84.1607 114.022 84.87 114.022C85.6047 114.022 86.2 114.275 86.656 114.782C87.112 115.263 87.34 115.871 87.34 116.606C87.34 116.859 87.3147 117.113 87.264 117.366C87.2387 117.594 87.1753 117.873 87.074 118.202C86.998 118.506 86.8713 118.886 86.694 119.342L84.908 124.624H82.514ZM90.8865 119V116.416L101.716 105.966C102.679 105.054 103.388 104.256 103.844 103.572C104.326 102.863 104.642 102.217 104.794 101.634C104.972 101.026 105.06 100.443 105.06 99.886C105.06 98.518 104.579 97.4413 103.616 96.656C102.654 95.8707 101.248 95.478 99.3985 95.478C97.9798 95.478 96.7005 95.7187 95.5605 96.2C94.4205 96.656 93.4325 97.378 92.5965 98.366L90.0125 96.124C91.0258 94.832 92.3811 93.844 94.0785 93.16C95.8011 92.4507 97.6885 92.096 99.7405 92.096C101.59 92.096 103.198 92.4 104.566 93.008C105.934 93.5907 106.986 94.4393 107.72 95.554C108.48 96.6687 108.86 97.986 108.86 99.506C108.86 100.367 108.746 101.216 108.518 102.052C108.29 102.888 107.86 103.775 107.226 104.712C106.593 105.649 105.681 106.701 104.49 107.866L94.8385 117.176L93.9265 115.694H110V119H90.8865ZM123.956 119.304C121.878 119.304 120.016 118.772 118.37 117.708C116.748 116.644 115.456 115.099 114.494 113.072C113.556 111.045 113.088 108.588 113.088 105.7C113.088 102.812 113.556 100.355 114.494 98.328C115.456 96.3013 116.748 94.756 118.37 93.692C120.016 92.628 121.878 92.096 123.956 92.096C126.008 92.096 127.857 92.628 129.504 93.692C131.15 94.756 132.442 96.3013 133.38 98.328C134.317 100.355 134.786 102.812 134.786 105.7C134.786 108.588 134.317 111.045 133.38 113.072C132.442 115.099 131.15 116.644 129.504 117.708C127.857 118.772 126.008 119.304 123.956 119.304ZM123.956 115.922C125.349 115.922 126.565 115.542 127.604 114.782C128.668 114.022 129.491 112.882 130.074 111.362C130.682 109.842 130.986 107.955 130.986 105.7C130.986 103.445 130.682 101.558 130.074 100.038C129.491 98.518 128.668 97.378 127.604 96.618C126.565 95.858 125.349 95.478 123.956 95.478C122.562 95.478 121.334 95.858 120.27 96.618C119.206 97.378 118.37 98.518 117.762 100.038C117.179 101.558 116.888 103.445 116.888 105.7C116.888 107.955 117.179 109.842 117.762 111.362C118.37 112.882 119.206 114.022 120.27 114.782C121.334 115.542 122.562 115.922 123.956 115.922ZM149.301 119.304C147.224 119.304 145.362 118.772 143.715 117.708C142.094 116.644 140.802 115.099 139.839 113.072C138.902 111.045 138.433 108.588 138.433 105.7C138.433 102.812 138.902 100.355 139.839 98.328C140.802 96.3013 142.094 94.756 143.715 93.692C145.362 92.628 147.224 92.096 149.301 92.096C151.353 92.096 153.203 92.628 154.849 93.692C156.496 94.756 157.788 96.3013 158.725 98.328C159.663 100.355 160.131 102.812 160.131 105.7C160.131 108.588 159.663 111.045 158.725 113.072C157.788 115.099 156.496 116.644 154.849 117.708C153.203 118.772 151.353 119.304 149.301 119.304ZM149.301 115.922C150.695 115.922 151.911 115.542 152.949 114.782C154.013 114.022 154.837 112.882 155.419 111.362C156.027 109.842 156.331 107.955 156.331 105.7C156.331 103.445 156.027 101.558 155.419 100.038C154.837 98.518 154.013 97.378 152.949 96.618C151.911 95.858 150.695 95.478 149.301 95.478C147.908 95.478 146.679 95.858 145.615 96.618C144.551 97.378 143.715 98.518 143.107 100.038C142.525 101.558 142.233 103.445 142.233 105.7C142.233 107.955 142.525 109.842 143.107 111.362C143.715 112.882 144.551 114.022 145.615 114.782C146.679 115.542 147.908 115.922 149.301 115.922ZM163.524 124.624L165.424 116.948L165.918 119.152C165.183 119.152 164.562 118.924 164.056 118.468C163.574 118.012 163.334 117.391 163.334 116.606C163.334 115.846 163.574 115.225 164.056 114.744C164.562 114.263 165.17 114.022 165.88 114.022C166.614 114.022 167.21 114.275 167.666 114.782C168.122 115.263 168.35 115.871 168.35 116.606C168.35 116.859 168.324 117.113 168.274 117.366C168.248 117.594 168.185 117.873 168.084 118.202C168.008 118.506 167.881 118.886 167.704 119.342L165.918 124.624H163.524ZM182.366 119.304C180.288 119.304 178.426 118.772 176.78 117.708C175.158 116.644 173.866 115.099 172.904 113.072C171.966 111.045 171.498 108.588 171.498 105.7C171.498 102.812 171.966 100.355 172.904 98.328C173.866 96.3013 175.158 94.756 176.78 93.692C178.426 92.628 180.288 92.096 182.366 92.096C184.418 92.096 186.267 92.628 187.914 93.692C189.56 94.756 190.852 96.3013 191.79 98.328C192.727 100.355 193.196 102.812 193.196 105.7C193.196 108.588 192.727 111.045 191.79 113.072C190.852 115.099 189.56 116.644 187.914 117.708C186.267 118.772 184.418 119.304 182.366 119.304ZM182.366 115.922C183.759 115.922 184.975 115.542 186.014 114.782C187.078 114.022 187.901 112.882 188.484 111.362C189.092 109.842 189.396 107.955 189.396 105.7C189.396 103.445 189.092 101.558 188.484 100.038C187.901 98.518 187.078 97.378 186.014 96.618C184.975 95.858 183.759 95.478 182.366 95.478C180.972 95.478 179.744 95.858 178.68 96.618C177.616 97.378 176.78 98.518 176.172 100.038C175.589 101.558 175.298 103.445 175.298 105.7C175.298 107.955 175.589 109.842 176.172 111.362C176.78 112.882 177.616 114.022 178.68 114.782C179.744 115.542 180.972 115.922 182.366 115.922ZM207.712 119.304C205.634 119.304 203.772 118.772 202.126 117.708C200.504 116.644 199.212 115.099 198.25 113.072C197.312 111.045 196.844 108.588 196.844 105.7C196.844 102.812 197.312 100.355 198.25 98.328C199.212 96.3013 200.504 94.756 202.126 93.692C203.772 92.628 205.634 92.096 207.712 92.096C209.764 92.096 211.613 92.628 213.26 93.692C214.906 94.756 216.198 96.3013 217.136 98.328C218.073 100.355 218.542 102.812 218.542 105.7C218.542 108.588 218.073 111.045 217.136 113.072C216.198 115.099 214.906 116.644 213.26 117.708C211.613 118.772 209.764 119.304 207.712 119.304ZM207.712 115.922C209.105 115.922 210.321 115.542 211.36 114.782C212.424 114.022 213.247 112.882 213.83 111.362C214.438 109.842 214.742 107.955 214.742 105.7C214.742 103.445 214.438 101.558 213.83 100.038C213.247 98.518 212.424 97.378 211.36 96.618C210.321 95.858 209.105 95.478 207.712 95.478C206.318 95.478 205.09 95.858 204.026 96.618C202.962 97.378 202.126 98.518 201.518 100.038C200.935 101.558 200.644 103.445 200.644 105.7C200.644 107.955 200.935 109.842 201.518 111.362C202.126 112.882 202.962 114.022 204.026 114.782C205.09 115.542 206.318 115.922 207.712 115.922ZM233.057 119.304C230.98 119.304 229.118 118.772 227.471 117.708C225.85 116.644 224.558 115.099 223.595 113.072C222.658 111.045 222.189 108.588 222.189 105.7C222.189 102.812 222.658 100.355 223.595 98.328C224.558 96.3013 225.85 94.756 227.471 93.692C229.118 92.628 230.98 92.096 233.057 92.096C235.109 92.096 236.959 92.628 238.605 93.692C240.252 94.756 241.544 96.3013 242.481 98.328C243.419 100.355 243.887 102.812 243.887 105.7C243.887 108.588 243.419 111.045 242.481 113.072C241.544 115.099 240.252 116.644 238.605 117.708C236.959 118.772 235.109 119.304 233.057 119.304ZM233.057 115.922C234.451 115.922 235.667 115.542 236.705 114.782C237.769 114.022 238.593 112.882 239.175 111.362C239.783 109.842 240.087 107.955 240.087 105.7C240.087 103.445 239.783 101.558 239.175 100.038C238.593 98.518 237.769 97.378 236.705 96.618C235.667 95.858 234.451 95.478 233.057 95.478C231.664 95.478 230.435 95.858 229.371 96.618C228.307 97.378 227.471 98.518 226.863 100.038C226.281 101.558 225.989 103.445 225.989 105.7C225.989 107.955 226.281 109.842 226.863 111.362C227.471 112.882 228.307 114.022 229.371 114.782C230.435 115.542 231.664 115.922 233.057 115.922Z" fill="#1C1C1C"/>
<rect x="29.5" y="28.5" width="126" height="39" rx="11.5" stroke="#E8E8E8"/>
<path d="M78.4538 53V43.5856H82.1254C82.9503 43.5856 83.6541 43.7157 84.2369 43.9757C84.8197 44.2357 85.268 44.6123 85.5818 45.1054C85.8956 45.5985 86.0525 46.1858 86.0525 46.8672C86.0525 47.5486 85.8956 48.1359 85.5818 48.6291C85.268 49.1132 84.8197 49.4853 84.2369 49.7453C83.6541 50.0053 82.9503 50.1353 82.1254 50.1353H79.1935L79.7987 49.5167V53H78.4538ZM84.748 53L82.354 49.5839H83.7931L86.2139 53H84.748ZM79.7987 49.6512L79.1935 48.9922H82.0851C82.9458 48.9922 83.5958 48.8084 84.0352 48.4408C84.4835 48.0642 84.7076 47.5397 84.7076 46.8672C84.7076 46.1948 84.4835 45.6747 84.0352 45.3071C83.5958 44.9395 82.9458 44.7557 82.0851 44.7557H79.1935L79.7987 44.0833V49.6512ZM91.2111 53.0807C90.449 53.0807 89.7765 52.9238 89.1937 52.61C88.6199 52.2962 88.1716 51.8658 87.8488 51.3189C87.535 50.7719 87.3781 50.1443 87.3781 49.436C87.3781 48.7277 87.5305 48.1001 87.8354 47.5531C88.1492 47.0062 88.5751 46.5803 89.113 46.2755C89.66 45.9617 90.2741 45.8047 90.9556 45.8047C91.646 45.8047 92.2556 45.9572 92.7846 46.262C93.3136 46.5669 93.7261 46.9972 94.022 47.5531C94.3268 48.1001 94.4792 48.7411 94.4792 49.4763C94.4792 49.5301 94.4747 49.5929 94.4658 49.6646C94.4658 49.7364 94.4613 49.8036 94.4523 49.8664H88.3868V48.9384H93.7799L93.2554 49.2612C93.2643 48.8039 93.1702 48.3959 92.9729 48.0373C92.7757 47.6786 92.5022 47.4007 92.1525 47.2034C91.8118 46.9972 91.4128 46.8941 90.9556 46.8941C90.5073 46.8941 90.1083 46.9972 89.7586 47.2034C89.4089 47.4007 89.1355 47.6831 88.9382 48.0507C88.741 48.4094 88.6423 48.8218 88.6423 49.2881V49.5032C88.6423 49.9784 88.7499 50.4043 88.9651 50.7809C89.1893 51.1485 89.4986 51.4354 89.8931 51.6416C90.2876 51.8479 90.7404 51.951 91.2514 51.951C91.6729 51.951 92.0539 51.8792 92.3946 51.7358C92.7443 51.5923 93.0491 51.3771 93.3092 51.0902L94.022 51.9241C93.6992 52.3006 93.2957 52.5876 92.8115 52.7848C92.3363 52.9821 91.8029 53.0807 91.2111 53.0807ZM98.0101 53L94.8899 45.872H96.2349L99.0054 52.3275H98.3598L101.184 45.872H102.448L99.3281 53H98.0101ZM106.63 53.0807C105.868 53.0807 105.196 52.9238 104.613 52.61C104.039 52.2962 103.591 51.8658 103.268 51.3189C102.954 50.7719 102.797 50.1443 102.797 49.436C102.797 48.7277 102.95 48.1001 103.255 47.5531C103.568 47.0062 103.994 46.5803 104.532 46.2755C105.079 45.9617 105.693 45.8047 106.375 45.8047C107.065 45.8047 107.675 45.9572 108.204 46.262C108.733 46.5669 109.145 46.9972 109.441 47.5531C109.746 48.1001 109.898 48.7411 109.898 49.4763C109.898 49.5301 109.894 49.5929 109.885 49.6646C109.885 49.7364 109.88 49.8036 109.871 49.8664H103.806V48.9384H109.199L108.675 49.2612C108.683 48.8039 108.589 48.3959 108.392 48.0373C108.195 47.6786 107.921 47.4007 107.572 47.2034C107.231 46.9972 106.832 46.8941 106.375 46.8941C105.926 46.8941 105.527 46.9972 105.178 47.2034C104.828 47.4007 104.555 47.6831 104.357 48.0507C104.16 48.4094 104.061 48.8218 104.061 49.2881V49.5032C104.061 49.9784 104.169 50.4043 104.384 50.7809C104.608 51.1485 104.918 51.4354 105.312 51.6416C105.707 51.8479 106.16 51.951 106.671 51.951C107.092 51.951 107.473 51.8792 107.814 51.7358C108.163 51.5923 108.468 51.3771 108.728 51.0902L109.441 51.9241C109.118 52.3006 108.715 52.5876 108.231 52.7848C107.755 52.9821 107.222 53.0807 106.63 53.0807ZM115.497 45.8047C116.08 45.8047 116.591 45.9168 117.03 46.141C117.479 46.3651 117.828 46.7058 118.08 47.1631C118.331 47.6204 118.456 48.1987 118.456 48.898V53H117.165V49.046C117.165 48.3556 116.995 47.8356 116.654 47.4859C116.322 47.1362 115.851 46.9614 115.242 46.9614C114.784 46.9614 114.386 47.051 114.045 47.2303C113.704 47.4097 113.44 47.6742 113.251 48.0238C113.072 48.3735 112.982 48.8084 112.982 49.3284V53H111.691V45.872H112.929V47.7952L112.727 47.2841C112.96 46.8179 113.319 46.4548 113.803 46.1948C114.287 45.9348 114.852 45.8047 115.497 45.8047ZM123.845 53.0807C123.235 53.0807 122.697 52.9686 122.231 52.7445C121.773 52.5203 121.415 52.1796 121.155 51.7223C120.904 51.2561 120.778 50.6733 120.778 49.974V45.872H122.069V49.826C122.069 50.5254 122.235 51.0499 122.567 51.3996C122.908 51.7492 123.383 51.9241 123.993 51.9241C124.441 51.9241 124.831 51.8344 125.163 51.6551C125.494 51.4668 125.75 51.1978 125.929 50.8481C126.109 50.4895 126.198 50.0591 126.198 49.557V45.872H127.489V53H126.265V51.0768L126.467 51.5878C126.234 52.063 125.884 52.4307 125.418 52.6907C124.952 52.9507 124.427 53.0807 123.845 53.0807ZM133.121 53.0807C132.359 53.0807 131.687 52.9238 131.104 52.61C130.53 52.2962 130.082 51.8658 129.759 51.3189C129.445 50.7719 129.288 50.1443 129.288 49.436C129.288 48.7277 129.441 48.1001 129.746 47.5531C130.059 47.0062 130.485 46.5803 131.023 46.2755C131.57 45.9617 132.184 45.8047 132.866 45.8047C133.556 45.8047 134.166 45.9572 134.695 46.262C135.224 46.5669 135.636 46.9972 135.932 47.5531C136.237 48.1001 136.389 48.7411 136.389 49.4763C136.389 49.5301 136.385 49.5929 136.376 49.6646C136.376 49.7364 136.371 49.8036 136.362 49.8664H130.297V48.9384H135.69L135.166 49.2612C135.174 48.8039 135.08 48.3959 134.883 48.0373C134.686 47.6786 134.412 47.4007 134.063 47.2034C133.722 46.9972 133.323 46.8941 132.866 46.8941C132.417 46.8941 132.018 46.9972 131.669 47.2034C131.319 47.4007 131.046 47.6831 130.848 48.0507C130.651 48.4094 130.552 48.8218 130.552 49.2881V49.5032C130.552 49.9784 130.66 50.4043 130.875 50.7809C131.099 51.1485 131.409 51.4354 131.803 51.6416C132.198 51.8479 132.651 51.951 133.162 51.951C133.583 51.951 133.964 51.8792 134.305 51.7358C134.654 51.5923 134.959 51.3771 135.219 51.0902L135.932 51.9241C135.609 52.3006 135.206 52.5876 134.722 52.7848C134.246 52.9821 133.713 53.0807 133.121 53.0807Z" fill="black"/>
<g clip-path="url(#clip0_6007_1354)">
<path d="M58.8438 41.5625V41.5885C58.6471 41.5736 58.4504 41.5625 58.25 41.5625H53.5C52.8877 41.5625 52.2939 41.6404 51.7262 41.7852C51.7225 41.7109 51.7188 41.6367 51.7188 41.5625C51.7188 39.5957 53.3145 38 55.2812 38C57.248 38 58.8438 39.5957 58.8438 41.5625ZM58.25 42.75C58.3799 42.75 58.5098 42.7537 58.6359 42.7611C58.7918 42.7723 58.9477 42.7871 59.1035 42.8094C59.7566 42.0486 60.7289 41.5625 61.8125 41.5625H62.2393C62.6252 41.5625 62.9072 41.9262 62.8145 42.301L62.3023 44.3494C62.8887 44.8986 63.3674 45.5666 63.6939 46.3125H64.1875C64.8443 46.3125 65.375 46.8432 65.375 47.5V51.0625C65.375 51.7193 64.8443 52.25 64.1875 52.25H63C62.6623 52.699 62.2615 53.0998 61.8125 53.4375V55.8125C61.8125 56.4693 61.2818 57 60.625 57H59.4375C58.7807 57 58.25 56.4693 58.25 55.8125V54.625H53.5V55.8125C53.5 56.4693 52.9693 57 52.3125 57H51.125C50.4682 57 49.9375 56.4693 49.9375 55.8125V53.4375C48.6424 52.4652 47.7592 50.9771 47.5922 49.2812H46.5234C45.1281 49.2812 44 48.1531 44 46.7578C44 45.3625 45.1281 44.2344 46.5234 44.2344H46.6719C47.1654 44.2344 47.5625 44.6314 47.5625 45.125C47.5625 45.6186 47.1654 46.0156 46.6719 46.0156H46.5234C46.1152 46.0156 45.7812 46.3496 45.7812 46.7578C45.7812 47.166 46.1152 47.5 46.5234 47.5H47.6812C48.1303 45.2809 49.8225 43.5107 51.9971 42.943C52.4758 42.8168 52.9805 42.75 53.5 42.75H58.25ZM60.625 47.7969C60.625 47.5607 60.5312 47.3341 60.3641 47.1671C60.1971 47.0001 59.9706 46.9062 59.7344 46.9062C59.4982 46.9062 59.2716 47.0001 59.1046 47.1671C58.9376 47.3341 58.8438 47.5607 58.8438 47.7969C58.8438 48.0331 58.9376 48.2596 59.1046 48.4266C59.2716 48.5937 59.4982 48.6875 59.7344 48.6875C59.9706 48.6875 60.1971 48.5937 60.3641 48.4266C60.5312 48.2596 60.625 48.0331 60.625 47.7969Z" fill="black"/>
</g>
<rect x="312.854" y="4" width="66.2923" height="66.2923" rx="19.2462" fill="white"/>
<path d="M360.438 27.8125H334.188C333.839 27.8125 333.506 27.6742 333.259 27.4281C333.013 27.1819 332.875 26.8481 332.875 26.5C332.875 26.1519 333.013 25.8181 333.259 25.5719C333.506 25.3258 333.839 25.1875 334.188 25.1875H356.5C356.848 25.1875 357.182 25.0492 357.428 24.8031C357.674 24.5569 357.812 24.2231 357.812 23.875C357.812 23.5269 357.674 23.1931 357.428 22.9469C357.182 22.7008 356.848 22.5625 356.5 22.5625H334.188C333.143 22.5625 332.142 22.9773 331.403 23.7158C330.665 24.4542 330.25 25.4557 330.25 26.5V47.5C330.25 48.5443 330.665 49.5458 331.403 50.2842C332.142 51.0227 333.143 51.4375 334.188 51.4375H360.438C361.134 51.4375 361.801 51.1609 362.294 50.6687C362.786 50.1764 363.062 49.5087 363.062 48.8125V30.4375C363.062 29.7413 362.786 29.0736 362.294 28.5813C361.801 28.0891 361.134 27.8125 360.438 27.8125ZM360.438 48.8125H334.188C333.839 48.8125 333.506 48.6742 333.259 48.4281C333.013 48.1819 332.875 47.8481 332.875 47.5V30.2127C333.296 30.3621 333.74 30.4382 334.188 30.4375H360.438V48.8125ZM352.562 38.9688C352.562 38.5794 352.678 38.1987 352.894 37.875C353.111 37.5512 353.418 37.2989 353.778 37.1499C354.138 37.0009 354.533 36.9619 354.915 37.0378C355.297 37.1138 355.648 37.3013 355.923 37.5766C356.199 37.852 356.386 38.2028 356.462 38.5847C356.538 38.9666 356.499 39.3624 356.35 39.7222C356.201 40.0819 355.949 40.3894 355.625 40.6057C355.301 40.822 354.921 40.9375 354.531 40.9375C354.009 40.9375 353.508 40.7301 353.139 40.3609C352.77 39.9917 352.562 39.4909 352.562 38.9688Z" fill="black"/>
<rect x="312.854" y="76.2922" width="66.2923" height="66.2923" rx="19.2462" fill="white"/>
<path fill-rule="evenodd" clip-rule="evenodd" d="M335.705 113.213C336.026 113.924 336.087 114.725 335.879 115.477C335.67 116.228 335.204 116.883 334.562 117.327C333.92 117.77 333.143 117.975 332.366 117.904C331.589 117.834 330.862 117.493 330.31 116.941C329.758 116.39 329.418 115.662 329.347 114.885C329.277 114.108 329.481 113.331 329.925 112.689C330.368 112.047 331.023 111.582 331.774 111.373C332.526 111.164 333.327 111.225 334.038 111.546L337.962 107.623C337.733 107.115 337.634 106.558 337.676 106.003C337.718 105.447 337.898 104.911 338.2 104.443C338.502 103.976 338.917 103.591 339.406 103.325C339.895 103.058 340.443 102.919 341 102.919C341.557 102.919 342.105 103.058 342.594 103.325C343.083 103.591 343.498 103.976 343.8 104.443C344.102 104.911 344.282 105.447 344.324 106.003C344.366 106.558 344.267 107.115 344.038 107.623L347.962 111.546C348.393 111.351 348.86 111.25 349.333 111.25C349.806 111.25 350.274 111.351 350.705 111.546L356.295 105.956C355.974 105.245 355.913 104.444 356.121 103.692C356.33 102.941 356.796 102.286 357.438 101.843C358.08 101.399 358.857 101.195 359.634 101.265C360.411 101.335 361.139 101.676 361.69 102.228C362.242 102.779 362.583 103.507 362.653 104.284C362.723 105.061 362.519 105.838 362.075 106.48C361.632 107.122 360.977 107.588 360.226 107.796C359.474 108.005 358.673 107.944 357.962 107.623L352.372 113.213C352.601 113.721 352.699 114.278 352.657 114.833C352.616 115.388 352.436 115.925 352.133 116.392C351.831 116.86 351.417 117.245 350.928 117.511C350.438 117.778 349.89 117.917 349.333 117.917C348.776 117.917 348.228 117.778 347.739 117.511C347.25 117.245 346.835 116.86 346.533 116.392C346.231 115.925 346.051 115.388 346.009 114.833C345.968 114.278 346.066 113.721 346.295 113.213L342.372 109.29C341.941 109.485 341.473 109.586 341 109.586C340.527 109.586 340.059 109.485 339.628 109.29L335.705 113.213Z" fill="black"/>
<defs>
<clipPath id="clip0_6007_1354">
<rect width="21.375" height="19" fill="white" transform="translate(44 38)"/>
</clipPath>
</defs>
</svg>
