<svg width="101" height="101" viewBox="0 0 101 101" fill="none" xmlns="http://www.w3.org/2000/svg">
<circle cx="50.5" cy="50.5" r="50.5" fill="#2F8ED6"/>
<g clip-path="url(#clip0_6008_977)">
<path d="M59 39.8751C59.5204 39.8752 60.0228 40.0663 60.4118 40.4121C60.8007 40.758 61.0492 41.2346 61.1101 41.7515L61.125 42.0001V62.4447L65.0095 58.5602C65.391 58.1751 65.9053 57.9503 66.4471 57.9319C66.9889 57.9135 67.5173 58.1029 67.9241 58.4614C68.3308 58.8198 68.5852 59.3201 68.6351 59.8599C68.6851 60.3998 68.5268 60.9383 68.1927 61.3652L68.0142 61.565L60.5023 69.079C60.1364 69.4449 59.6496 69.6647 59.1332 69.6971C58.6167 69.7296 58.1062 69.5725 57.6973 69.2554L57.4976 69.079L49.9836 61.565C49.6025 61.1826 49.3812 60.6694 49.3647 60.1298C49.3482 59.5902 49.5378 59.0645 49.8949 58.6595C50.2519 58.2546 50.7498 58.0007 51.2872 57.9495C51.8247 57.8983 52.3615 58.0536 52.7886 58.3839L52.9905 58.5602L56.875 62.4426V42.0001C56.875 41.4365 57.0988 40.896 57.4974 40.4975C57.8959 40.099 58.4364 39.8751 59 39.8751ZM43.5023 31.9212L51.0142 39.4352C51.2172 39.6313 51.3791 39.8658 51.4904 40.125C51.6018 40.3843 51.6604 40.6631 51.6629 40.9453C51.6653 41.2274 51.6116 41.5072 51.5047 41.7684C51.3979 42.0296 51.2401 42.2668 51.0406 42.4663C50.841 42.6659 50.6038 42.8236 50.3426 42.9305C50.0815 43.0373 49.8016 43.0911 49.5195 43.0887C49.2373 43.0862 48.9585 43.0276 48.6992 42.9162C48.44 42.8048 48.2055 42.643 48.0095 42.44L44.125 38.5555V58.998C44.125 59.5616 43.9011 60.1021 43.5026 60.5006C43.104 60.8991 42.5635 61.123 42 61.123C41.4364 61.123 40.8959 60.8991 40.4974 60.5006C40.0988 60.1021 39.875 59.5616 39.875 58.998V38.5576L35.9862 42.44C35.5854 42.8271 35.0487 43.0413 34.4915 43.0364C33.9343 43.0316 33.4013 42.8081 33.0073 42.4141C32.6134 42.0201 32.3899 41.4871 32.385 40.93C32.3802 40.3728 32.5944 39.836 32.9815 39.4352L40.4955 31.9212C40.894 31.5229 41.4344 31.2991 41.9978 31.2991C42.5613 31.2991 43.1038 31.5229 43.5023 31.9212Z" fill="white"/>
</g>
<defs>
<clipPath id="clip0_6008_977">
<rect width="51" height="51" fill="white" transform="translate(25 25)"/>
</clipPath>
</defs>
</svg>
