<svg width="79" height="79" viewBox="0 0 79 79" fill="none" xmlns="http://www.w3.org/2000/svg">
<circle cx="39.461" cy="39.461" r="39.461" fill="#121212"/>
<path d="M24.8946 32.5134C24.8946 33.1953 25.2482 33.7762 25.9553 34.256C26.6624 34.7358 27.4958 35.1399 28.4555 35.4682C29.4152 35.7713 30.3623 36.0112 31.2967 36.188C32.2564 36.3395 32.9888 36.4532 33.4939 36.5289V28.8009C32.9635 28.8515 32.2185 28.9272 31.2588 29.0282C30.2991 29.1293 29.3395 29.3187 28.3798 29.5965C27.4453 29.849 26.6245 30.2152 25.9174 30.6951C25.2355 31.1496 24.8946 31.7558 24.8946 32.5134ZM26.9781 32.5134C26.9781 32.2356 27.1675 32.0083 27.5464 31.8315C27.9504 31.6295 28.405 31.478 28.9101 31.3769C29.4405 31.2507 29.9456 31.1623 30.4254 31.1118C30.9053 31.0613 31.2462 31.0234 31.4482 30.9981V34.1045C31.2967 34.0792 30.9684 34.0287 30.4633 33.9529C29.9835 33.8519 29.4784 33.7383 28.948 33.612C28.4429 33.4605 27.9883 33.2963 27.5842 33.1195C27.1802 32.9175 26.9781 32.7155 26.9781 32.5134ZM44.7449 42.9689C44.7449 42.4891 44.5682 42.0724 44.2146 41.7188C43.861 41.34 43.4064 41.0117 42.8508 40.7339C42.2952 40.4308 41.6765 40.1783 40.9946 39.9762C40.3127 39.7742 39.6308 39.5974 38.9489 39.4459C38.2923 39.2944 37.6736 39.1807 37.0927 39.1049C36.5118 39.0039 36.0573 38.9282 35.7289 38.8776V46.6814C36.0825 46.6562 36.5497 46.6183 37.1306 46.5678C37.7114 46.5173 38.3302 46.4415 38.9868 46.3405C39.6687 46.2395 40.3506 46.1005 41.0325 45.9238C41.7144 45.747 42.3331 45.5323 42.8887 45.2798C43.4443 45.002 43.8863 44.6736 44.2146 44.2948C44.5682 43.916 44.7449 43.474 44.7449 42.9689ZM42.6614 42.9689C42.6614 43.2467 42.4467 43.474 42.0174 43.6508C41.5881 43.8276 41.0956 43.9791 40.54 44.1054C39.9844 44.2064 39.4414 44.2822 38.9111 44.3327C38.3807 44.3832 38.0271 44.4211 37.8504 44.4464V41.34C38.0271 41.3653 38.3807 41.4284 38.9111 41.5294C39.4414 41.6052 39.9844 41.7062 40.54 41.8325C41.0956 41.9587 41.5881 42.1229 42.0174 42.3249C42.4467 42.5017 42.6614 42.7164 42.6614 42.9689ZM24.3642 42.9311C24.9198 43.6129 25.5386 44.1938 26.2205 44.6736C26.9276 45.1282 27.6726 45.5071 28.4555 45.8101C29.2637 46.0879 30.0971 46.3026 30.9558 46.4541C31.8144 46.5804 32.6605 46.6562 33.4939 46.6814V38.7261C32.9383 38.6504 32.2816 38.5493 31.524 38.4231C30.7916 38.2968 30.0087 38.1326 29.1753 37.9306C28.3671 37.7033 27.559 37.4255 26.7508 37.0972C25.9679 36.7689 25.2608 36.39 24.6294 35.9607C23.998 35.5314 23.4803 35.0389 23.0762 34.4833C22.6974 33.9024 22.508 33.2458 22.508 32.5134C22.508 31.3769 22.9247 30.4425 23.7581 29.7101C24.5915 28.9525 25.5891 28.359 26.7508 27.9296C27.9125 27.4751 29.1122 27.1467 30.3496 26.9447C31.6124 26.7427 32.6605 26.6164 33.4939 26.5659V23.8005H35.7289V26.5659C36.7139 26.6164 37.6988 26.7427 38.6838 26.9447C39.694 27.1215 40.6536 27.3867 41.5628 27.7402C42.472 28.0938 43.318 28.561 44.1009 29.1419C44.9091 29.6975 45.6289 30.392 46.2602 31.2254L44.1388 32.6271C43.6337 31.9957 43.0529 31.4527 42.3962 30.9981C41.7649 30.5435 41.083 30.1647 40.3506 29.8616C39.6182 29.5586 38.8605 29.3313 38.0776 29.1798C37.2947 29.003 36.5118 28.8641 35.7289 28.7631V36.6426C36.2845 36.7184 36.9538 36.8194 37.7367 36.9456C38.5196 37.0719 39.3278 37.2487 40.1612 37.476C41.0198 37.7033 41.8533 37.9811 42.6614 38.3094C43.4948 38.6377 44.2398 39.0292 44.8965 39.4838C45.5784 39.9131 46.1213 40.4182 46.5254 40.9991C46.9295 41.5799 47.1315 42.2365 47.1315 42.9689C47.1315 43.7266 46.9169 44.3958 46.4875 44.9767C46.0835 45.5576 45.5531 46.0627 44.8965 46.492C44.2398 46.9213 43.4948 47.2875 42.6614 47.5906C41.828 47.8936 40.982 48.1336 40.1233 48.3104C39.2899 48.4871 38.4817 48.626 37.6988 48.7271C36.9412 48.8281 36.2845 48.8912 35.7289 48.9165V51.1136H33.4939V48.9165C32.4837 48.8912 31.4609 48.7902 30.4254 48.6134C29.39 48.4366 28.3798 48.1715 27.3948 47.8179C26.4351 47.4643 25.526 47.0097 24.6673 46.4541C23.8086 45.8733 23.051 45.1661 22.3944 44.3327L24.3642 42.9311ZM19.4395 43.8024C20.8285 45.9743 22.5459 47.6537 24.5915 48.8407C26.6372 50.0277 28.9227 50.7222 31.4482 50.9242V53.2351H37.8504V50.9242C38.9616 50.8232 40.1738 50.6212 41.4871 50.3181C42.8256 49.9898 44.0631 49.51 45.1995 48.8786C46.3613 48.2472 47.3209 47.4517 48.0786 46.492C48.8615 45.5323 49.2529 44.358 49.2529 42.9689C49.2529 42.0598 49.0762 41.239 48.7226 40.5066C48.369 39.7489 47.8892 39.0923 47.2831 38.5367C46.6769 37.9558 45.9824 37.4634 45.1995 37.0593C44.4166 36.63 43.5958 36.2638 42.7372 35.9607C41.9038 35.6576 41.0577 35.4177 40.1991 35.2409C39.3656 35.0389 38.5827 34.8747 37.8504 34.7485V31.1496C39.0373 31.478 40.098 32.0209 41.0325 32.7786C41.9922 33.511 42.8129 34.3696 43.4948 35.3546L49.2151 31.9452C47.9018 29.8238 46.2981 28.1443 44.404 26.9068C42.5099 25.6441 40.3253 24.8738 37.8504 24.596V21.6791H31.4482V24.596C30.337 24.697 29.1374 24.9117 27.8494 25.24C26.5614 25.5683 25.3618 26.0482 24.2506 26.6795C23.1646 27.2856 22.2555 28.0685 21.5231 29.0282C20.7907 29.9879 20.4245 31.1496 20.4245 32.5134C20.4245 33.9024 20.7907 35.0768 21.5231 36.0365C22.2555 36.9709 23.1646 37.7538 24.2506 38.3852C25.3618 38.9913 26.5614 39.4711 27.8494 39.8247C29.1374 40.153 30.337 40.3929 31.4482 40.5445V44.4085C30.0592 44.2064 28.8217 43.714 27.7358 42.9311C26.6498 42.1482 25.7154 41.1885 24.9325 40.052L19.4395 43.8024ZM23.796 39.7111L22.7353 38.6504C21.7756 37.9685 20.9927 37.1351 20.3866 36.1501C19.7805 35.1399 19.4774 33.9277 19.4774 32.5134C19.4774 31.0991 19.831 29.8869 20.5381 28.8767C21.2453 27.8413 22.1418 26.97 23.2278 26.2628C24.3137 25.5557 25.5007 25.0001 26.7887 24.596C28.0767 24.1919 29.3142 23.9015 30.5012 23.7247V20.732H38.7974L42.472 24.7854C44.8965 25.8209 47.0305 27.5003 48.8741 29.8238L51.0713 32.0209C52.1825 33.1322 53.218 34.458 54.1776 35.9986L49.0256 39.0671L51.8289 41.8704C52.4603 42.5017 52.9528 43.2215 53.3064 44.0296C53.6852 44.8378 53.8746 45.747 53.8746 46.7572C53.8746 48.1967 53.4958 49.4342 52.7381 50.4696C52.0057 51.5051 51.0713 52.3638 49.9348 53.0456C48.8236 53.7275 47.5987 54.2579 46.2602 54.6367C44.9217 55.0408 43.659 55.3186 42.472 55.4701V57.8567H34.4031L31.4104 54.864C28.9606 54.1064 26.8013 52.7931 24.9325 50.9242C23.9223 50.0151 23.0636 49.2195 22.3565 48.5376C21.6493 47.8305 21.0306 47.1991 20.5002 46.6435C19.9951 46.0879 19.5532 45.5702 19.1744 45.0904C18.8208 44.5853 18.4798 44.0802 18.1515 43.5751L23.796 39.7111Z" fill="#A7B1C5"/>
</svg>
