<svg width="80" height="79" viewBox="0 0 80 79" fill="none" xmlns="http://www.w3.org/2000/svg">
<circle cx="40.3832" cy="39.461" r="39.461" fill="#121212"/>
<path d="M23.7433 37.3624C23.718 37.3624 23.7054 37.3497 23.7054 37.3245H23.7433V37.3624ZM25.9026 33.2711C26.4582 31.9578 27.1653 30.8718 28.024 30.0132C28.8827 29.1545 29.8424 28.4726 30.9031 27.9675C31.9638 27.4372 33.1129 27.071 34.3504 26.8689C35.5878 26.6669 36.8632 26.5659 38.1765 26.5659H40.4494C41.2323 26.5659 42.0026 26.6416 42.7602 26.7932C43.5179 26.9447 44.2629 27.1341 44.9953 27.3614V29.2934C44.2629 29.0914 43.5053 28.9146 42.7224 28.7631C41.9395 28.6115 41.1818 28.5358 40.4494 28.5358H38.1765C37.3431 28.5358 36.4718 28.6242 35.5626 28.8009C34.6787 28.9777 33.8326 29.2555 33.0245 29.6344C32.2416 30.0132 31.5344 30.5056 30.9031 31.1118C30.2717 31.6926 29.7918 32.4124 29.4635 33.2711H44.124V35.2409H28.8953C28.6933 35.6703 28.5544 36.1249 28.4786 36.6047C28.4028 37.0593 28.3649 37.5265 28.3649 38.0064C28.3649 38.7893 28.4786 39.5343 28.7059 40.2414H44.124V42.2113H29.0468C29.4256 43.0195 29.956 43.7266 30.6379 44.3327C31.3198 44.9136 32.0774 45.406 32.9108 45.8101C33.7695 46.1889 34.6534 46.4794 35.5626 46.6814C36.4718 46.8582 37.3431 46.9466 38.1765 46.9466H40.4494C41.9142 46.9466 43.4169 46.7698 44.9574 46.4162V48.424C44.225 48.5503 43.4674 48.6639 42.6845 48.7649C41.9268 48.866 41.1818 48.9165 40.4494 48.9165H38.1765C36.8632 48.9165 35.5878 48.8155 34.3504 48.6134C33.1129 48.4114 31.9638 48.0578 30.9031 47.5527C29.8424 47.0224 28.8827 46.3278 28.024 45.4692C27.1653 44.6105 26.4582 43.5245 25.9026 42.2113H22.4174V40.2414H25.6374C25.5111 39.8121 25.4101 39.3954 25.3344 38.9913C25.2586 38.562 25.2207 38.1326 25.2207 37.7033C25.2207 37.274 25.2586 36.8573 25.3344 36.4532C25.4101 36.0491 25.5111 35.645 25.6374 35.2409H22.4174V33.2711H25.9026ZM23.7054 37.3245V37.2487C23.7054 37.2487 23.7054 37.274 23.7054 37.3245L23.7433 37.5896V38.1579H20.296V44.2569H24.5388C25.2965 45.8733 26.2562 47.136 27.4179 48.0452C28.6049 48.9544 29.8929 49.6362 31.2819 50.0908C32.6962 50.5202 34.1862 50.7853 35.752 50.8864C37.3178 50.9874 38.8836 51.0379 40.4494 51.0379C41.4091 51.0379 42.394 50.9495 43.4042 50.7727C44.4144 50.5707 45.3994 50.3434 46.3591 50.0908V25.8461C44.9953 25.2653 43.6568 24.8864 42.3435 24.7096C41.0303 24.5329 39.6413 24.4445 38.1765 24.4445C36.8127 24.4445 35.4489 24.5455 34.0852 24.7475C32.7214 24.9496 31.4334 25.3031 30.2212 25.8082C29.0342 26.3133 27.9482 27.0078 26.9633 27.8918C25.9784 28.7504 25.1702 29.8616 24.5388 31.2254H20.296V37.3245H23.7054ZM19.3489 30.2784H23.9327C24.6398 28.9146 25.5111 27.8034 26.5466 26.9447C27.6073 26.0608 28.7564 25.3663 29.9939 24.8612C31.2566 24.3561 32.5825 24.0025 33.9715 23.8005C35.3605 23.5984 36.7622 23.4974 38.1765 23.4974C39.6665 23.4974 41.1313 23.6111 42.5708 23.8384C44.0104 24.0404 45.5888 24.5076 47.3061 25.24L50.9807 29.104V54.5231C49.8442 54.8261 48.6951 55.0913 47.5334 55.3186C46.3717 55.5459 45.2731 55.6595 44.2376 55.6595C42.9496 55.6595 41.6364 55.6216 40.2979 55.5459C38.9846 55.4701 37.7093 55.2807 36.4718 54.9776C35.2343 54.6998 34.0473 54.2831 32.9108 53.7275C31.7744 53.1972 30.7515 52.4774 29.8424 51.5682C29.1857 50.9369 28.668 50.4444 28.2892 50.0908C27.9356 49.7373 27.6704 49.4721 27.4936 49.2953C27.3169 49.1185 27.2032 49.0175 27.1527 48.9922C27.1275 48.9417 27.1022 48.9038 27.0769 48.8786H23.2508L19.3489 45.204V30.2784Z" fill="#A7B1C5"/>
</svg>
