<svg width="80" height="79" viewBox="0 0 80 79" fill="none" xmlns="http://www.w3.org/2000/svg">
<circle cx="40.2273" cy="39.461" r="39.461" fill="#121212"/>
<path d="M45.4801 33.3847C44.4194 31.6421 43.1314 30.392 41.6161 29.6344C40.1008 28.8767 38.3582 28.4979 36.3883 28.4979C33.8123 28.4979 31.8424 29.2176 30.4787 30.6572C29.1401 32.0967 28.3699 34.0792 28.1678 36.6047H41.2372V38.8776H28.2057C28.1805 39.3827 28.1426 40.0141 28.0921 40.7718C28.0416 41.5042 27.9405 42.2618 27.789 43.0447C27.6627 43.8024 27.4733 44.5095 27.2208 45.1661C26.9682 45.8227 26.6147 46.3026 26.1601 46.6056H48.2834V48.9165H23.4325V46.7572C23.9629 46.6814 24.3922 46.29 24.7205 45.5828C25.0489 44.8757 25.2888 44.0802 25.4403 43.1962C25.6171 42.3123 25.7307 41.4536 25.7812 40.6202C25.8318 39.7868 25.857 39.206 25.857 38.8776H22.5234V36.6047H25.857C26.1601 29.6849 29.8094 26.2249 36.805 26.2249C39.0022 26.2249 41.0478 26.7553 42.942 27.816C44.8613 28.8767 46.4145 30.3289 47.6015 32.1725L45.4801 33.3847ZM50.4048 32.968C48.9905 30.19 47.1343 28.018 44.8361 26.4522C42.5379 24.8864 39.8103 24.1035 36.6535 24.1035C34.8604 24.1035 33.2188 24.3056 31.7288 24.7096C30.2387 25.0885 28.9381 25.7072 27.8269 26.5659C26.7409 27.3993 25.8444 28.4726 25.1372 29.7859C24.4554 31.0991 24.026 32.6776 23.8492 34.5212H20.402V40.9612H23.6977C23.6977 41.2642 23.6598 41.6936 23.5841 42.2492C23.5336 42.7795 23.4199 43.3099 23.2431 43.8402C23.0663 44.3706 22.8264 44.8252 22.5234 45.204C22.2203 45.5828 21.8289 45.7722 21.349 45.7722V51.0379H50.4048V44.4842H29.6452C29.7715 43.9034 29.8852 43.3225 29.9862 42.7416C30.1125 42.1355 30.2009 41.542 30.2514 40.9612H43.3587V34.5212H30.5544C30.706 33.6878 30.9838 33.0185 31.3878 32.5134C31.7919 32.0083 32.2718 31.6169 32.8274 31.3391C33.383 31.036 34.0017 30.8466 34.6836 30.7708C35.3655 30.6698 36.0726 30.6193 36.805 30.6193C37.7394 30.6193 38.5981 30.7708 39.381 31.0739C40.1892 31.3517 40.9089 31.7558 41.5403 32.2861C42.1969 32.7912 42.7778 33.3973 43.2829 34.1045C43.8132 34.7864 44.2678 35.5314 44.6467 36.3395L50.4048 32.968ZM20.402 51.9849V44.7873C20.7303 44.8125 21.0081 44.7747 21.2354 44.6736C21.4879 44.5474 21.7026 44.3832 21.8794 44.1812L19.4549 41.9082V33.5741H23.0158C23.2936 31.7305 23.8114 30.1521 24.569 28.8388C25.3267 27.5256 26.2863 26.4522 27.4481 25.6188C28.635 24.7602 29.9988 24.1414 31.5394 23.7626C33.1052 23.3585 34.8099 23.1565 36.6535 23.1565C37.891 23.1565 39.078 23.2827 40.2144 23.5353C41.3761 23.7626 42.5379 24.1793 43.6996 24.7854C44.8866 25.3663 46.0988 26.1744 47.3363 27.2099C48.599 28.2201 49.9376 29.5081 51.3518 31.0739C52.0842 31.8063 52.7914 32.7281 53.4732 33.8393C54.1551 34.9253 54.7612 35.9986 55.2916 37.0593L47.9803 41.2264V43.5372H51.3518L55.0264 47.4391V55.6595H24.3038L20.402 51.9849Z" fill="#A7B1C5"/>
</svg>
