<svg width="80" height="79" viewBox="0 0 80 79" fill="none" xmlns="http://www.w3.org/2000/svg">
<circle cx="40.3052" cy="39.461" r="39.461" fill="#121212"/>
<path d="M25.9258 37.7791H32.3658L21.0011 26.5659H24.3726L35.3585 37.3624L46.155 26.5659H49.4508L38.2376 37.7791H44.6397V39.3701H36.495V43.9918H44.6397V45.5828H36.495V48.9165H34.1463V45.5828H25.9258V43.9918H34.1463V39.3701H25.9258V37.7791ZM23.8044 47.7042H32.0628V51.0379H38.6164V47.7042H46.7611V35.6576H43.3138L54.4891 24.4445H45.3216L35.3206 34.5212L25.1682 24.4445H15.9628L27.2896 35.6576H23.8044V47.7042ZM22.8573 34.7106H24.9788L13.6898 23.4974H25.547L35.2828 33.1953L44.9049 23.4974H56.7999L60.323 27.3993L50.2463 37.5139L51.3828 38.6125V52.3259H43.2381V55.6595H35.0176L31.6839 52.3259H26.7592L22.8573 48.6513V34.7106Z" fill="#A7B1C5"/>
</svg>
