<svg width="69" height="70" viewBox="0 0 69 70" fill="none" xmlns="http://www.w3.org/2000/svg">
<g filter="url(#filter0_d_1757_852)">
<path d="M13.9104 30.8138C13.9094 34.4266 14.8534 37.9543 16.6484 41.0636L13.7388 51.6873L24.6108 48.8366C27.6178 50.4736 30.987 51.3314 34.4108 51.3316H34.4198C45.7223 51.3316 54.9228 42.1344 54.9276 30.8299C54.9298 25.3521 52.7984 20.2011 48.9261 16.3258C45.0544 12.4508 39.9053 10.3156 34.4189 10.3131C23.1151 10.3131 13.9153 19.5098 13.9106 30.8138" fill="url(#paint0_linear_1757_852)"/>
<path d="M13.1783 30.8071C13.1772 34.5499 14.155 38.2038 16.014 41.4244L13 52.4289L24.2618 49.4761C27.3648 51.1679 30.8585 52.0599 34.4135 52.0612H34.4227C46.1307 52.0612 55.6617 42.5332 55.6667 30.8241C55.6687 25.1494 53.4607 19.8132 49.45 15.7991C45.4388 11.7854 40.1055 9.57342 34.4227 9.57108C22.7127 9.57108 13.183 19.0978 13.1783 30.8071ZM19.8852 40.8698L19.4647 40.2023C17.697 37.3916 16.764 34.1436 16.7653 30.8084C16.769 21.0759 24.6897 13.1577 34.4293 13.1577C39.146 13.1597 43.5787 14.9984 46.9127 18.3344C50.2465 21.6708 52.081 26.1058 52.0798 30.8228C52.0755 40.5553 44.1547 48.4744 34.4227 48.4744H34.4157C31.2468 48.4728 28.139 47.6217 25.4287 46.0136L24.7837 45.6311L18.1007 47.3833L19.8852 40.8698Z" fill="url(#paint1_linear_1757_852)"/>
<path d="M29.1129 21.9291C28.7153 21.0452 28.2968 21.0274 27.9186 21.0119C27.6089 20.9986 27.2549 20.9996 26.9013 20.9996C26.5473 20.9996 25.9721 21.1327 25.4859 21.6636C24.9993 22.1949 23.6279 23.4789 23.6279 26.0904C23.6279 28.7021 25.5301 31.2259 25.7953 31.5804C26.0608 31.9342 29.4674 37.4649 34.8628 39.5926C39.3468 41.3607 40.2593 41.0091 41.2324 40.9204C42.2058 40.8321 44.3731 39.6367 44.8153 38.3972C45.2578 37.1579 45.2578 36.0956 45.1251 35.8736C44.9924 35.6524 44.6384 35.5196 44.1076 35.2542C43.5766 34.9887 40.9669 33.7046 40.4804 33.5274C39.9938 33.3504 39.6399 33.2621 39.2859 33.7936C38.9319 34.3242 37.9154 35.5196 37.6056 35.8736C37.2961 36.2284 36.9863 36.2726 36.4556 36.0071C35.9244 35.7407 34.2149 35.1809 32.1868 33.3727C30.6088 31.9657 29.5434 30.2282 29.2338 29.6967C28.9241 29.1661 29.2006 28.8784 29.4668 28.6139C29.7053 28.3761 29.9978 27.9941 30.2634 27.6842C30.5281 27.3742 30.6164 27.1531 30.7934 26.7991C30.9706 26.4447 30.8819 26.1347 30.7494 25.8692C30.6164 25.6037 29.5849 22.9786 29.1129 21.9291Z" fill="white"/>
</g>
<defs>
<filter id="filter0_d_1757_852" x="0.3" y="0.871083" width="68.0666" height="68.2578" filterUnits="userSpaceOnUse" color-interpolation-filters="sRGB">
<feFlood flood-opacity="0" result="BackgroundImageFix"/>
<feColorMatrix in="SourceAlpha" type="matrix" values="0 0 0 0 0 0 0 0 0 0 0 0 0 0 0 0 0 0 127 0" result="hardAlpha"/>
<feOffset dy="4"/>
<feGaussianBlur stdDeviation="6.35"/>
<feComposite in2="hardAlpha" operator="out"/>
<feColorMatrix type="matrix" values="0 0 0 0 0 0 0 0 0 0 0 0 0 0 0 0 0 0 0.17 0"/>
<feBlend mode="normal" in2="BackgroundImageFix" result="effect1_dropShadow_1757_852"/>
<feBlend mode="normal" in="SourceGraphic" in2="effect1_dropShadow_1757_852" result="shape"/>
</filter>
<linearGradient id="paint0_linear_1757_852" x1="2073.18" y1="4147.73" x2="2073.18" y2="10.3131" gradientUnits="userSpaceOnUse">
<stop stop-color="#1FAF38"/>
<stop offset="1" stop-color="#60D669"/>
</linearGradient>
<linearGradient id="paint1_linear_1757_852" x1="2146.33" y1="4295.35" x2="2146.33" y2="9.57108" gradientUnits="userSpaceOnUse">
<stop stop-color="#F9F9F9"/>
<stop offset="1" stop-color="white"/>
</linearGradient>
</defs>
</svg>
