<?xml version="1.0" encoding="UTF-8"?>
<svg width="500px" height="500px" viewBox="0 0 500 500" version="1.1" xmlns="http://www.w3.org/2000/svg" xmlns:xlink="http://www.w3.org/1999/xlink">
    <!-- Generator: Sketch 52.5 (67469) - http://www.bohemiancoding.com/sketch -->
    <title>Artboard Copy 3</title>
    <desc>Created with Sketch.</desc>
    <g id="Artboard-Copy-3" stroke="none" stroke-width="1" fill="none" fill-rule="evenodd">
        <g id="buy-copy" transform="translate(78.000000, 18.000000)">
            <path d="M224,0 L32,0 C14.328125,0 0,14.328125 0,32 L0,432 C0,449.671875 14.328125,464 32,464 L165.938292,464 L152,184 L80,184 C62.328125,184 48,169.671875 48,152 C48,134.328125 62.328125,120 80,120 L176,120 C188.949219,119.988281 200.628906,127.785156 205.589844,139.75 C210.546875,151.714844 207.800781,165.488281 198.640625,174.640625 C198.3125,174.980469 197.964844,175.300781 197.601562,175.601562 C199.160156,178.125 199.992188,181.03125 200,184 L200,272 C200.027344,263.175781 207.175781,256.027344 216,256 L232,256 C240.824219,256.027344 247.972656,263.175781 248,272 L248,280 C248.003906,274.289062 251.054688,269.015625 256,266.160156 L256,32 C256,14.328125 241.671875,2.84217094e-14 224,0 Z" id="Path" fill="#042E46"></path>
            <polygon id="Path" fill="#58ACEB" points="0 64 256 64 256 384 0 384"></polygon>
            <polygon id="Path" fill="#2F8ED6" points="256 64 256 384 0 384 0 360.320312 244.960938 64"></polygon>
            <polygon id="Path" fill="#FFFFFF" points="88 276 104 276 104 292 88 292"></polygon>
            <polygon id="Path" fill="#FFFFFF" points="120 276 168 276 168 292 120 292"></polygon>
            <polygon id="Path" fill="#FFFFFF" points="88 308 168 308 168 324 88 324"></polygon>
            <polygon id="Path" fill="#032234" points="120 416 136 416 136 432 120 432"></polygon>
            <polygon id="Path" fill="#032234" points="64 24 80 24 80 40 64 40"></polygon>
            <polygon id="Path" fill="#032234" points="96 24 112 24 112 40 96 40"></polygon>
        </g>
        <g id="shield" transform="translate(153.000000, 118.000000)">
            <path d="M53.0006067,0 C37.1007885,15.6997605 0,20.9330139 0,20.9330139 L0,101.893326 C0,116.5989 7.81465063,130.227638 20.5847266,137.794235 L53.0006067,157 L85.4152734,137.794235 C98.1865624,130.227638 106.001213,116.5989 106,101.893326 L106,20.9330139 C68.9004248,20.9330139 53.0006067,0 53.0006067,0 Z" id="Path" fill="#BC1237"></path>
            <path d="M26.1873576,100.674446 L12,86.4870888 L23.1470418,75.340047 L37.3343995,89.5274046 L81.8618041,45 L93.0088459,56.1470418 L37.2736368,111.882251 L26.1265949,100.735209 L26.1873576,100.674446 Z" id="Combined-Shape" fill="#FFFFFF"></path>
        </g>
        <g id="Group-2" transform="translate(230.000000, 171.000000)">
            <path d="M192,135 L187.71,262.311094 L165.831035,310.21875 L10.25,311 L0,267.178432 L0,31 C0,14.2758553 8.47333333,4.11239736 25.42,0.509626174 C40.4733333,6.16987539 48,16.3333333 48,31 C48,45.6666667 48,75 48,119 C48.027344,110.175781 49.88,103 64,103 L80,103 C93.77,103 95.972656,110.175781 96,119 L96,127 C96,118.164062 98.76,111 112,111 C113.268117,111 118.60145,111 128,111 C142.097825,111 143.972656,118.175781 144,127 L144,135 C144.027344,126.175781 146.264012,118.21875 160,119 C162.48,119 167.813333,119 176,119 C188.28,119 191.972656,126.175781 192,135 Z" id="Path" fill="#955F43"></path>
            <path d="M64,103 L64,143 L48,151 L48,119 C48.027344,110.175781 49.88,103 64,103 Z" id="Path" fill="#824E38"></path>
            <path d="M112,111 L112,151 L96,159 L96,127 C96.027344,118.175781 98.76,111 112,111 Z" id="Path" fill="#824E38"></path>
            <path d="M160,119 L160.51,151 L144,159 L144,135 C144.027344,126.175781 146.264012,118.21875 160,119 Z" id="Path" fill="#824E38"></path>
        </g>
    </g>
</svg>